<svg id="Layer_1" xmlns="http://www.w3.org/2000/svg" viewBox="0 0 46.4 56.9"><style>.st0{fill:#FFFFFF;}</style><path class="st0" d="M9.5 3.5v-.2c0-.1 0-.1.1-.2l.6-.9c.2-.4.5-.7.8-.9h.6c.2 0 .3.1.4.2.1.1.1.2 0 .3 0 .2-.1.3-.1.5-.1.2-.1.3-.2.5-.2.4-.5.7-.7 1.1-.2.4-.4.7-.5 1.1-.3.8-.6 1.7-.8 2.5-.2.8-.5 1.6-.8 2.5l-.6 1.8c-.2.6-.4 1.2-.6 1.9-.1.3-.2.7-.3 1-.2.3-.3.6-.4.9h-.1-.2c0-.3 0-.6.1-.9.1-.3.1-.6.2-1 .3-.9.6-1.9.9-2.8.2-.9.6-1.9 1-2.8 0-.2.1-.4.1-.5 0-.2.1-.3.1-.5.1-.3.1-.5.3-.8l.3-.9s0-.1.1-.3c.1-.1.1-.2.2-.4.1-.1.1-.3.1-.4V4v.1c-.1 0-.2.1-.3.3-.1.2-.2.3-.3.5-.1.2-.2.3-.3.5-.1.1-.2.2-.2.3-.4.8-.8 1.5-1.2 2.2-.5.7-.9 1.4-1.4 2.1l-.9 1.2c-.3.4-.6.7-1 1.1-.2.2-.4.4-.7.6-.2.2-.5.4-.8.5-.3.1-.5.2-.8.2-.3 0-.5 0-.8-.1-.4-.1-.6-.4-.4-.7 0-.4.2-.8.4-1.2.1-.3.3-.6.3-.8l.3-.9c0-.1.1-.2.2-.2s.1-.1.2-.2c0-.1.1-.3.2-.4.1-.1.1-.3.1-.4 0-.1 0-.1.1-.2 0-.1.1-.2.1-.2.3-.8.7-1.5 1-2.3S4.6 4.3 5 3.6l.3-.6c.1-.2.2-.4.4-.6.1-.1.2-.1.3-.1h.4c.1 0 .2.1.2.1v.2c0 .1-.1.2-.2.3-.4.4-.7.9-1 1.4-.4.6-.6 1.1-.8 1.5-.2.6-.5 1.1-.7 1.6-.3.6-.5 1.1-.7 1.7-.2.5-.4 1-.5 1.4-.2.5-.3 1-.5 1.5 0 0 0 .1-.1.2v.6c0 .1 0 .2.1.3.1 0 .2-.1.3-.1.1 0 .2-.1.3-.2.1-.1.2-.1.3-.2.1-.1.2-.1.2-.2.3-.3.7-.6 1-1 .3-.3.6-.7.9-1.1.2-.3.5-.7.7-1 .3-.3.6-.7.8-1.1.1-.2.2-.3.3-.5.1-.2.2-.3.3-.5.3-.2.5-.4.6-.6.1-.3.2-.5.3-.8.1-.3.2-.5.3-.7.1-.2.3-.5.5-.7 0-.1.1-.1.2-.2s.1-.2.2-.2c0-.1.1-.1.1-.2v-.3zM15 8.9v.2c-.1.1-.1.2-.2.3-.1.1-.1.2-.2.3-.1.1-.2.2-.2.3-.1.1-.1.2-.2.2-.1.1-.2.1-.2.2 0 0-.1 0-.1.1-.1.1-.2.2-.3.2-.1.1-.2.1-.3.2l-.6.1c-.3.1-.5.1-.7.1h-.1c-.1 0-.2-.1-.4-.2h-.1s-.1-.1-.1-.2.1-.2.1-.3c0-.1.1-.1.1-.1.2-.2.5-.4.7-.6.3-.2.6-.3.8-.5.3-.2.4-.2.6-.3.1-.1.3-.1.4-.2l.3-.2.1-.1v-.2c0-.1-.1-.2-.2-.2H14c-.3 0-.5.1-.7.3-.3.2-.6.4-.9.7-.3.2-.5.5-.8.8-.2.2-.3.5-.4.7-.1.2-.3.5-.4.7l-.3.7-.2.5c0 .1-.1.2-.1.3 0 .1-.1.2-.1.3-.1.2-.2.5-.3.7 0 .1-.1.2-.1.4 0 .1-.1.2-.1.3v.2c0 .1-.1.3-.1.4 0 .1-.1.2-.2.4l-.1.1h-.1H9s-.1 0-.1-.1v-.5c.1-.1.1-.3.1-.4v-.1-.1c0-.1.1-.2.1-.4 0-.1.1-.2.1-.4.1-.3.2-.6.4-1 .1-.3.3-.6.4-.9l.6-1.5.3-.6.3-.6.1-.2c0-.1.1-.3.1-.4.1-.1.1-.3.2-.4 0 0 0-.1.1-.2s0-.1.1-.2v-.2-.2c0-.1 0-.1.1-.2l.1-.1h.5c.1 0 .1.1.1.1v.2l-.1.3c-.1.1-.1.2-.2.4l-.2.4V8.5h.2s.1 0 .1-.1c.3-.2.5-.4.8-.5l.3-.1c.2-.1.3-.1.5-.1h.5c.2 0 .4.1.5.3l.1.1c.1.1.1.3.1.4 0 .2-.1.3-.2.4zm-1.2.6c-.1-.1-.2-.1-.2 0l-.8.4c-.1.1-.2.1-.3.2-.1.1-.2.2-.2.3l-.1.1c0 .1.1.1.1.1.1 0 .2 0 .3-.1.1 0 .2-.1.3-.1.2-.1.3-.3.5-.4s.3-.3.4-.4v-.1zM19.8 14.2v-.3-.3-.1-.1c0-.2.1-.4.1-.6 0-.2.1-.4.1-.5.1-.3.1-.5.2-.8.1-.2.2-.5.3-.7.1-.2.1-.4.2-.6.1-.2.1-.4.2-.6 0 0 0-.1.1-.1v-.1s-.1-.1-.2-.1h-.7c-.2 0-.3-.1-.3-.2V9v-.1c0-.1 0-.1.1-.2.1-.2.3-.3.5-.4.2-.1.3-.2.5-.3.1 0 .3-.1.5-.2 0 0 .1 0 .1-.1 0 0 .1 0 .1-.1l.2-.2c.1-.3.2-.5.3-.7.1-.2.3-.5.4-.7.1-.1.1-.3.2-.4.1-.1.1-.3.2-.4v-.1-.2-.1c0-.1.1-.2.1-.3 0-.1.1-.2.1-.3 0-.1.1-.1.1-.2s.1-.2.1-.3c.1-.1.1-.2.2-.3 0-.1.1-.2.1-.3V3h-.1-.2c-.1 0-.2.1-.3.1-.1.1-.3.1-.4.2-.1.1-.3.1-.4.2-.1 0-.1 0-.2.1-.5.3-.9.6-1.3.8-.1.1-.3.2-.4.3 0 .2-.1.3-.3.3-.1.1-.2.1-.3.1-.1.1-.2.1-.3.1-.1 0-.2-.1-.3-.1-.2-.2-.2-.4-.2-.7v-.1-.1c.2 0 .3-.1.5-.2.2 0 .3 0 .4-.1.1 0 .2-.1.2-.1.1-.1.2-.1.3-.2.1-.1.2-.1.3-.2l.1-.1s.1-.1.2-.1.1-.1.2-.1c0 0 .1-.1.2-.1 0 0 .1 0 .1-.1 0 0 .1 0 .1-.1.4-.2.7-.4 1.1-.6.4-.2.8-.3 1.2-.5.1 0 .1-.1.2-.1s.3 0 .4-.1c.2-.1.3-.1.5-.2s.3-.1.5-.2c0 0 .1 0 .2-.1.2 0 .3-.1.5-.1 0 .1.2.1.4 0 .1 0 .3-.1.4-.1.1 0 .2-.1.4-.1.1 0 .2-.1.4-.1.1 0 .3-.1.4-.1.1 0 .3-.1.4-.1.1 0 .3-.1.4-.1.3-.1.6-.1.9-.2h.2c.2 0 .3-.1.5-.1h1.1c.2 0 .4.1.5.1.1 0 .2.1.3.1.1 0 .2.1.3.2.2.1.2.3.3.4v.1c0 .1-.1.3-.2.4-.1.1-.1.2-.2.3-.1.1-.2.2-.2.3-.2.1-.3.2-.4.3 0 0-.1 0-.1.1 0 0-.1 0-.1.1h-.1-.1v-.2c.1-.3.2-.6.4-.8 0 0 0-.1.1-.1 0 0 0-.1.1-.1V.9s0-.1-.1-.1c0 0-.1 0-.2-.1h-.6-.1-.7c-.2 0-.3.1-.5.1s-.4.1-.6.1c-.2.1-.3.1-.5.1-.1 0-.3.1-.5.1s-.4.1-.6.2c-.3.1-.5.1-.8.2-.2.1-.5.2-.7.3-.1 0-.1 0-.2.1-.1 0-.1 0-.2.1-.2 0-.3.1-.5.2s-.3.1-.5.2c-.1 0-.1.1-.1.2 0 0 0 .1.1.1 0 0 0 .1.1.1v.4c-.1.2-.3.4-.4.6-.1.2-.2.4-.3.7-.2.1-.3.3-.4.5-.1.2-.2.4-.4.6-.1.2-.2.4-.3.5-.1.2-.2.4-.3.5 0 .1-.1.2-.1.3V7l.1.1c.2 0 .4 0 .5-.1h.6c.2 0 .3-.1.5-.1s.3-.1.5-.1.4-.1.5-.1H28.4c.1 0 .2.1.3.3v.1l-.1.1h-1.4c-.1 0-.3 0-.4.1h-.2c-.3 0-.5.1-.8.1-.3 0-.5.1-.8.2-.4.1-.9.2-1.3.3-.4.1-.8.3-1.2.5-.1 0-.1.1-.2.1-.1.3-.2.6-.4.8-.1.3-.2.6-.3.8-.1.4-.3.8-.4 1.2-.1.4-.2.8-.4 1.2 0 .1 0 .2-.1.3 0 .1 0 .2-.1.3v.2c-.1.3-.1.5-.1.8V15.5l-.1.1h-.1-.1s-.1-.1-.1-.2-.1-.1-.2-.2c0-.1-.1-.1-.1-.2 0-.2-.1-.3-.1-.5s.1-.2.1-.3z"/><path class="st0" d="M27.1 10.3c.2-.4.3-.8.5-1.2l.3-1.2c.1 0 .2-.1.2-.1h.2c.1 0 .1 0 .2.1l.2.2c.1 0 .1-.1.2-.2 0-.1.1-.1.1-.2.2-.1.3-.2.5-.3.2-.1.3-.2.5-.2h.5s.3 0 .4.1c.1 0 .2.1.2.3 0 .1-.1.2-.2.2h-.2H30.1c-.1 0-.3.1-.4.2-.3.3-.7.6-1 1-.3.3-.5.7-.7 1.2 0 .1-.1.1-.1.2s-.1.1-.1.2c-.1.1-.2.2-.3.1-.1 0-.2-.1-.3-.1.1-.1 0-.1-.1-.3zM33 8.4v.1c0 .1.1.1.2.1h1.3V9h-.1l-.1.1c-.1 0-.3.1-.5.1s-.3.1-.4.1c-.2.1-.4.1-.6.1h-.1-.1v.1l-.1.1s0 .1-.1.1c-.1.3-.3.5-.6.8-.2.2-.5.4-.7.6-.1.1-.2.1-.4.1h-.1-.1c-.1 0-.3-.1-.3-.2-.1-.1-.1-.2-.2-.3v-.1-.3-.1-.1c0-.1.1-.2.1-.2 0-.2.1-.3.1-.4 0-.1.1-.2.2-.4 0-.1.1-.2.1-.3 0-.1.1-.2.1-.3 0-.1.1-.2.2-.2s.2-.1.2-.2c.1-.1.1-.2.2-.3 0-.1.1-.2.2-.3 0-.1.1-.1.2-.1 0 0 .1-.1.2-.1s.3 0 .5-.1c.2 0 .3 0 .4.1h.2c0 .1.1.1.1.2 0 0 .1.1.1.2-.2.2-.1.3-.1.3v.4zm-1.1.8c0-.1 0-.1 0 0-.1-.2-.1-.2-.2-.3 0-.1-.1-.1-.1-.2l-.1-.1h-.1s-.1 0-.1.1c-.1.1-.1.2-.2.3-.1.2-.2.5-.3.6-.1.2-.1.4-.2.7v.2h.1c.3-.1.5-.3.6-.5.3-.3.5-.5.6-.8zm.6-1.3l-.1-.1c-.2.1-.3.3-.3.5V8.6h.2l.1-.1c0-.1.1-.2.1-.3v-.3z"/><path class="st0" d="M35.4 10.7c.1-.1.3-.2.4-.3.1-.1.3-.2.4-.3.1-.1.3-.2.5-.3.2-.1.3-.2.5-.3 0 0 .1 0 .2-.1.1 0 .1-.1.2-.1s.1 0 .2-.1c0 0 .1 0 .2-.1 0 0 .1 0 0 .1v.2l-.4.3-.1.1-.1.1-.7.6-.4.4s-.3.3-.5.4c-.1 0-.1.1-.2.1s-.1.1-.2.1l-.1.1-.1.1c-.2.1-.3 0-.4 0l-.1-.1c-.1-.1-.1-.2-.2-.2v-.3l.1-.3c.1-.2.1-.3.2-.5 0-.2.1-.3.2-.5V9.2s0-.1-.1-.1h-.1l-.4.4-.2.2c-.1.2-.2.2-.3.3 0 0-.1 0-.1.1l-.1.1c0 .1-.1.1-.3.2l-.1.1c-.1 0-.2 0-.2-.1s-.1-.2 0-.3c0-.1.1-.2.1-.3 0-.1.1-.2.1-.3.1-.1.1-.2.2-.3 0-.1.1-.2.1-.3 0-.1.1-.2.1-.3 0-.1.1-.2.1-.3 0-.1.1-.2.1-.3.1-.2.1-.3.1-.3s.1-.1.1-.2.1-.1.2-.1H34.6s.1 0 .1.1c.1.1.2.2.1.3v.4h.2c0-.2.1-.3.2-.3l.3-.3c.1-.1.3-.1.4-.1.1 0 .2 0 .3.1V7.9c0 .1 0 .2-.1.2l-.6 1.4-.3.8c-.1.1-.1.3-.1.4h.3z"/><path class="st0" d="M38.9 7.4c0 .1 0 .2-.1.3 0 .1-.1.2-.1.3-.1.2-.1.3-.2.5s-.2.3-.2.5c0 .1-.1.3-.1.4 0 .1-.1.2-.1.4v.6c0 .2.1.4.2.5.1.1.3.1.5.1.4 0 .7-.1 1-.3.1 0 .2-.1.3-.1.1 0 .2-.1.3-.1h.2c-.1.2-.3.3-.4.5-.1.2-.2.3-.4.4-.4.2-.8.3-1.2.2-.3 0-.6-.2-.8-.5-.2-.3-.3-.6-.3-1 0-.2.1-.3.1-.5.1-.2.1-.4.2-.5 0-.5.1-.8.2-1.1.1-.3.3-.6.4-.8.1-.1.2-.2.2-.3 0-.1.1-.2.2-.3.1-.1.1-.3 0-.4H36c-.2 0-.4-.1-.6-.1-.1 0-.1-.1-.2-.1s-.1-.1-.2-.1c.1-.1.2-.1.4-.1h3.9c.2-.2.3-.4.4-.7.1-.2.2-.3.3-.5.1-.1.2-.3.3-.4l.1-.1s0-.1.1-.1c.1-.1.2-.1.3-.1h.3c.1 0 .2 0 .3.1 0 .1.1.1.1.2-.2.2-.4.5-.6.7-.2.2-.4.5-.5.8.4 0 .8.1 1.1 0s.7 0 1 0h4c-.6.2-1.2.3-1.9.3-.3 0-.7 0-1 .1-.3 0-.6 0-1 .1-.4 0-.7 0-1.1.1-.4 0-.7 0-1.1.1h-.2c-.1 0-.3 0-.4.1-.1.1-.2.2-.2.3-.1.1-.1.3-.2.4-.1.1-.2.2-.2.4 0 0 0 .1-.1.1-.1-.4-.2-.3-.2-.3z"/><g><path class="st0" d="M2.1 19.5c1.3 0 2.2 1 2.2 2.2v.5c0 1.3-1 2.2-2.2 2.2H1v3.7l-1 .2v-8.9h2.1zm1.2 2.3c0-.7-.6-1.2-1.2-1.2H1v3h1.1c.7 0 1.2-.5 1.2-1.2v-.6zM9.8 27.4v1.1H5.6v-8.9h4.2v1.1H6.7v2.5h2.5l-.2 1H6.7v3.2h3.1zM13 24.5h-.6v3.7l-1 .2v-8.9h2.1c1.3 0 2.2 1 2.2 2.2v.5c0 1-.7 1.9-1.6 2.1l1.7 4h-1.2L13 24.5zm.4-1c.7 0 1.2-.6 1.2-1.2v-.5c0-.7-.6-1.2-1.2-1.2h-1.1v3h1.1zM21.6 26.2c0 1.2-1 2.2-2.2 2.2-1.2 0-2.2-1-2.2-2.2V26h1.1v.2c0 .7.5 1.2 1.2 1.2.6 0 1.2-.5 1.2-1.2 0-2.3-3.4-1.7-3.4-4.6 0-1.2 1-2.2 2.2-2.2 1.2 0 2.2 1 2.2 2.2v.1l-1.1.2v-.3c0-.6-.5-1.2-1.2-1.2-.6 0-1.2.5-1.2 1.2 0 2.2 3.4 1.6 3.4 4.6zM27.6 21.8v4.5c0 1.2-1 2.2-2.2 2.2-1.2 0-2.2-1-2.2-2.2v-4.5c0-1.2 1-2.2 2.2-2.2 1.2-.1 2.2.9 2.2 2.2zm-1 0c0-.7-.6-1.2-1.2-1.2-.7 0-1.2.6-1.2 1.2v4.5c0 .7.6 1.2 1.2 1.2.7 0 1.2-.6 1.2-1.2v-4.5zM33.3 28.5h-1.1l-2-5.8v5.6l-1.1.2v-8.9h1.1l2 5.8v-5.8h1.1v8.9zM38.9 28.5l-.6-2.3h-2.2l-.6 2.1-1.1.2 2.2-9h1.2l2.2 8.9h-1.1zm-1.7-7l-.9 3.6h1.8l-.9-3.6zM45.4 28.5h-4.2v-8.7l1.1-.2v7.8h3.1v1.1z"/></g><g><path class="st0" d="M9.2 43.5v.7c0 2.5-2.1 4.6-4.6 4.6S0 46.7 0 44.1V35c0-2.5 2.1-4.6 4.6-4.6s4.6 2.1 4.6 4.6v.2l-2.1.4V35c0-1.4-1.1-2.5-2.5-2.5S2.1 33.6 2.1 35v9.1c0 1.4 1.1 2.5 2.5 2.5s2.5-1.1 2.5-2.5v-.7h2.1zM20.2 48.7L18.9 44h-4.5l-1.3 4.3-2.3.4 4.5-18.3h2.5l4.5 18.3h-2.1zm-3.6-14.3l-1.8 7.4h3.6l-1.8-7.4zM28.3 40.7H27v7.6l-2.1.4V30.5h4.3c2.6 0 4.6 2 4.6 4.6v1c0 2.1-1.4 3.8-3.2 4.4l3.5 8.3h-2.4l-3.4-8.1zm.8-2.1c1.4 0 2.5-1.1 2.5-2.5v-1c0-1.4-1.1-2.5-2.5-2.5H27v6h2.1zM45.4 46.5v2.2h-8.5V30.5h8.5v2.2H39v5.1h5.2l-.4 2.2H39v6.5h6.4z"/></g><g><path class="st0" d="M15.3 56.3v.6h-2.6v-.8c0-1.6 2-1.8 2-3.1 0-.4-.3-.7-.7-.7-.4 0-.7.3-.7.7v.1l-.6.1V53c0-.7.6-1.3 1.3-1.3.7 0 1.3.6 1.3 1.3 0 1.6-2 1.9-2 3.1v.2h2zM21.1 53v2.6c0 .7-.6 1.3-1.3 1.3-.7 0-1.3-.6-1.3-1.3V53c0-.7.6-1.3 1.3-1.3.7.1 1.3.6 1.3 1.3zm-.6 0c0-.4-.3-.7-.7-.7-.4 0-.7.3-.7.7v2.6c0 .4.3.7.7.7.4 0 .7-.3.7-.7V53zM26.8 56.3v.6h-2.6v-.8c0-1.6 2-1.8 2-3.1 0-.4-.3-.7-.7-.7-.4 0-.7.3-.7.7v.1l-.6.1V53c0-.7.6-1.3 1.3-1.3.7 0 1.3.6 1.3 1.3 0 1.6-2 1.9-2 3.1v.2h2zM32.6 53v2.6c0 .7-.6 1.3-1.3 1.3-.7 0-1.3-.6-1.3-1.3V53c0-.7.6-1.3 1.3-1.3.7.1 1.3.6 1.3 1.3zm-.6 0c0-.4-.3-.7-.7-.7-.4 0-.7.3-.7.7v2.6c0 .4.3.7.7.7.4 0 .7-.3.7-.7V53z"/></g></svg>