<svg id="Layer_1" xmlns="http://www.w3.org/2000/svg" viewBox="0 0 71.5 81.3"><style>.st0{fill:#AD853B;} .st1{fill:none;stroke:#AD853B;stroke-width:0.5;stroke-miterlimit:10;}</style><path class="st0" d="M21.3 17.4v-.2c0-.1 0-.1.1-.2l.6-.9c.2-.4.5-.7.8-.9h.6c.2 0 .3.1.4.2.1.1.1.2 0 .3 0 .2-.1.3-.1.5-.1.2-.1.3-.2.5-.2.4-.5.7-.7 1.1-.2.4-.4.7-.5 1.1-.3.8-.6 1.7-.8 2.5-.2.8-.5 1.7-.8 2.5l-.6 1.8c-.2.6-.4 1.2-.6 1.9-.1.3-.2.7-.3 1-.1.3-.2.6-.4.9h-.1-.2c0-.3 0-.6.1-.9.1-.3.1-.6.2-1 .3-.9.6-1.9.9-2.8.3-.9.7-1.9 1-2.9.1-.2.1-.3.1-.5s.1-.3.1-.5c.1-.3.1-.5.3-.8.1-.3.2-.5.3-.8 0 0 0-.1.1-.3.1-.1.1-.3.2-.4.1-.1.1-.3.1-.4v-.3.1c-.1 0-.2.1-.3.3-.1.1-.2.3-.3.5-.1.2-.2.3-.3.5-.1.2-.1.3-.2.3-.4.7-.8 1.5-1.2 2.2-.4.7-.8 1.4-1.3 2.1l-.9 1.2c-.3.4-.6.7-1 1.1-.2.2-.4.4-.7.6s-.5.4-.8.5c-.3.1-.5.2-.8.2-.3 0-.5 0-.8-.1-.4-.1-.6-.4-.4-.7 0-.4.2-.8.4-1.2.1-.3.3-.6.3-.8l.3-.9c0-.1.1-.2.2-.2l.2-.2c0-.1.1-.3.2-.4.1-.1.1-.3.1-.4 0-.1 0-.1.1-.2 0-.1.1-.2.1-.2.3-.8.7-1.5 1-2.3.4-.8.8-1.5 1.2-2.2l.3-.6c.1-.2.2-.4.4-.6.1-.1.2-.1.3-.1h.4c.1 0 .2.1.2.1v.2c0 .1-.1.2-.2.3-.4.4-.7.9-1 1.4-.3.5-.5 1-.7 1.5-.2.5-.4 1.1-.7 1.6-.2.5-.5 1.1-.7 1.7-.2.5-.4 1-.5 1.4-.2.5-.3 1-.5 1.5 0 0 0 .1-.1.2v.6c0 .1 0 .2.1.3.1 0 .2-.1.3-.1.1 0 .2-.1.3-.2s.2-.1.3-.2c.1-.1.2-.1.2-.2.3-.3.7-.6 1-1 .3-.3.6-.7.9-1.1.3-.4.5-.7.8-1.1.3-.3.5-.7.8-1.2 0-.1.1-.3.3-.5.1-.2.2-.3.3-.5.2-.2.4-.4.6-.7.1-.2.3-.5.4-.7.1-.3.2-.5.3-.7.1-.2.3-.5.5-.7 0-.1.1-.1.2-.2l.2-.2c0-.1.1-.1.1-.2-.5-.1-.5-.2-.5-.3zM26.9 22.8s0 .1-.1.1v.1c-.1.1-.1.2-.2.3-.1.1-.1.2-.2.3-.1.1-.2.2-.2.3-.1 0-.2.1-.2.1-.1.1-.2.1-.2.2 0 0-.1 0-.1.1-.1.1-.2.2-.3.2-.1.1-.2.1-.3.2l-.4.2c-.4.1-.6.1-.8.1h-.1c-.1 0-.2-.1-.4-.2h-.1s-.1-.1-.1-.2.1-.2.1-.3c0-.1.1-.1.1-.1.2-.2.5-.4.7-.6.3-.2.6-.3.8-.5.2-.1.3-.1.5-.2.1-.1.3-.1.4-.2l.3-.2.1-.1v-.2c0-.1-.1-.2-.2-.2h-.2c-.3 0-.5.1-.7.3-.3.2-.6.4-.9.7-.3.2-.5.5-.8.8-.2.2-.3.5-.4.7-.1.2-.3.5-.4.7l-.3.7-.2.5c0 .1-.1.2-.1.3 0 .1-.1.2-.1.3-.1.2-.2.5-.3.7 0 .1-.1.2-.1.4s-.1.2-.1.3v.2c0 .1-.1.3-.1.4 0 .1-.1.2-.2.4H21h-.1-.1s-.1 0-.1-.1v-.5c0-.2.1-.3.1-.5v-.1-.1c0-.1.1-.2.1-.4 0-.1.1-.2.1-.4.1-.3.2-.6.4-1 .1-.3.3-.6.4-.9l.6-1.5.3-.6.3-.6.1-.2c0-.1.1-.3.1-.4.1-.1.1-.3.2-.4 0 0 0-.1.1-.2 0-.1 0-.1.1-.2v-.2-.2c0-.1 0-.1.1-.2l.1-.1h.5c.1 0 .1.1.1.1v.2l-.1.3c-.1.1-.1.2-.2.4-.1.1-.1.2-.2.4V22.3h.2s.1 0 .1-.1c.3-.2.5-.4.8-.5l.3-.1c.2-.1.3-.1.5-.1h.5c.2 0 .4.1.5.3l.1.1.1.1c.1.1.1.3.1.4-.1.2-.1.3-.2.4zm-1.2.6c-.1-.1-.2-.1-.2 0l-.8.4c-.1.1-.2.1-.3.2-.1.1-.2.2-.2.3l-.1.1c0 .1.1.1.1.1.1 0 .2 0 .3-.1.1 0 .2-.1.3-.1.2-.1.3-.3.5-.4l.4-.4v-.1zM31.6 28.1v-.3-.3-.1-.1c0-.2.1-.4.1-.6 0-.2.1-.4.1-.5.1-.3.1-.5.2-.8.1-.2.2-.5.3-.7.1-.2.1-.4.2-.6.1-.2.1-.4.2-.6 0 0 0-.1.1-.1v-.1s-.1-.1-.2-.1h-.7c-.2 0-.3-.1-.3-.2v-.1-.1c0-.1 0-.1.1-.2.1-.2.3-.3.5-.4.2-.1.3-.2.5-.3.2-.1.3-.2.5-.3 0 0 .1 0 .1-.1 0 0 .1 0 .1-.1l.2-.2c.1-.3.2-.5.3-.7.1-.2.3-.5.4-.7.1-.1.1-.3.2-.4.1-.1.1-.3.2-.4v-.1-.2-.1c0-.1.1-.2.1-.3 0-.1.1-.2.1-.3 0-.1.1-.1.1-.2s.1-.2.1-.3c.1-.1.1-.2.2-.3 0-.1.1-.2.1-.3v-.1h-.1c-.1 0-.2.1-.3.1s0 .1-.1.1c-.1.1-.3.1-.4.2-.1.1-.3.1-.4.2-.1 0-.1 0-.2.1-.5.3-.9.6-1.3.8-.1.1-.3.2-.4.3-.1.1-.3.2-.4.3-.1.1-.2.1-.3.1-.1.1-.2.1-.3.1-.1 0-.2-.1-.3-.1-.2-.2-.2-.4-.2-.7v-.1-.1c.2 0 .3-.1.5-.2.1-.1.2-.1.3-.2.1-.1.2-.1.2-.2.1-.1.2-.1.3-.2.1-.1.2-.1.3-.2l.1-.1s.1-.1.2-.1.1-.1.2-.1c0 0 .1-.1.2-.1 0 0 .1 0 .1-.1 0 0 .1 0 .1-.1.4-.2.7-.4 1.1-.6.4-.2.8-.3 1.2-.5.1 0 .1-.1.2-.1s.3 0 .4-.1c.2-.1.3-.1.5-.2s.3-.1.5-.2c0 0 .1 0 .2-.1.2 0 .3-.1.5-.1.1-.1.3-.1.5-.2.1 0 .3-.1.4-.1.1 0 .2-.1.4-.1.1 0 .2-.1.4-.1.1 0 .3-.1.4-.1.1 0 .3-.1.4-.1.1 0 .3-.1.4-.1.3-.1.6-.1.9-.2h.2c.2 0 .3-.1.5-.1h1.1c.2 0 .4.1.5.1.1 0 .2.1.3.1.1 0 .2.1.3.2.2.1.2.3.3.4v.1c0 .1-.1.3-.2.4-.1.1-.1.2-.2.3-.1.1-.2.2-.2.3l-.3.3s-.1 0-.1.1c0 0-.1 0-.1.1h-.1-.1v-.1c.1-.3.2-.6.4-.8 0 0 0-.1.1-.1 0 0 0-.1.1-.1v-.3s0-.1-.1-.1c0 0-.1 0-.2-.1h-.6-.1-.7c-.2 0-.3.1-.5.1s-.4.1-.6.1c-.2 0-.3.1-.5.1-.1 0-.3.1-.5.1s-.4.1-.6.2c-.3.1-.5.1-.8.2-.2.1-.5.2-.7.3-.1 0-.1 0-.2.1-.1 0-.1 0-.2.1-.2 0-.3.1-.5.2s-.3.1-.5.2c-.1 0-.1.1-.1.2 0 0 0 .1.1.1 0 0 0 .1.1.1v.4c-.1.2-.3.4-.4.6-.1.2-.2.4-.3.7l-.3.6s-.2.4-.4.6c-.1.2-.2.4-.3.5-.1.2-.2.4-.3.5 0 .1-.1.2-.1.3v.1l.1.1c.2 0 .4 0 .5-.1.2-.1.3-.1.5-.1s.3-.1.5-.1.3-.1.5-.1.4-.1.5-.1H40.3c.1 0 .2.1.3.3v.1l-.1.1h-1.4c-.1 0-.3 0-.4.1h-.2c-.3 0-.5.1-.8.1s-.5.1-.8.2c-.4.1-.9.2-1.3.3-.4.1-.8.3-1.2.5-.1 0-.1.1-.2.1-.1.3-.2.6-.4.8-.1.3-.2.6-.3.8-.1.4-.3.8-.4 1.2-.1.4-.2.8-.4 1.2 0 .1 0 .2-.1.3 0 .1 0 .2-.1.3v.2c-.1.3-.1.5-.1.8V29.1l-.1.1h-.1-.1s-.1-.1-.1-.2-.1-.1-.2-.2c0-.1-.1-.1-.1-.2 0-.2-.1-.3-.1-.5s0 .1 0 0zM39 24.2c.2-.4.3-.8.5-1.2l.3-1.2c.1 0 .2-.1.2-.1h.2s.1 0 .2.1l.2.2c.1 0 .1-.1.2-.2 0-.1.1-.1.1-.2.2-.1.3-.2.5-.3.2-.1.3-.2.5-.2h.5c.2 0 .3 0 .4.1.1 0 .2.1.2.3 0 .1-.1.2-.2.2h-.2H42c-.1 0-.3.1-.4.2-.3.3-.7.6-1 1-.3.3-.5.7-.7 1.2 0 .1-.1.1-.1.2s-.1.1-.1.2c-.1.1-.2.2-.3.1-.1 0-.2-.1-.3-.1 0-.1-.1-.1-.1-.3z"/><path class="st0" d="M44.8 22.3v.1c0 .1.1.1.2.1h1.3v.4h-.1l-.1.1c-.1 0-.3.1-.5.1s-.3.1-.4.1c-.2.1-.4.1-.6.1h-.1-.1v.1l-.1.1s0 .1-.1.1c-.1.3-.3.5-.6.8-.2.2-.5.4-.7.6-.1.1-.2.1-.4.1h-.1-.1c-.1 0-.3-.1-.3-.2-.1-.1-.1-.2-.2-.3v-.1-.3-.1-.1c0-.1.1-.2.1-.2 0-.2.1-.3.1-.4 0-.1.1-.2.2-.4 0-.1.1-.2.1-.3 0-.1.1-.2.1-.3 0-.1.1-.2.2-.2l.2-.2c.1-.1.1-.2.2-.3 0-.1.1-.2.2-.3 0-.1.1-.1.2-.1 0 0 .1-.1.2-.1s.3 0 .5-.1c.2 0 .3 0 .4.1h.2c0 .1.1.1.1.2 0 0 .1.1.1.2s0 .1.1.2v.5zm-1 .8c0-.1 0-.1 0 0-.1-.2-.1-.2-.2-.3 0-.1-.1-.1-.1-.2l-.1-.1h-.1s-.1 0-.1.1c-.1.1-.1.2-.2.3-.1.2-.2.5-.3.6-.1.2-.1.4-.2.7v.2h.1c.3-.1.5-.3.6-.5.3-.3.4-.5.6-.8zm.6-1.3s-.1 0 0 0l-.1-.1c-.2.1-.3.3-.3.5V22.5h.2l.1-.1c0-.1.1-.2.1-.3-.1-.1-.1-.1 0-.3z"/><path class="st0" d="M47.3 24.6c.1-.1.3-.2.4-.3.1-.1.3-.2.4-.3.1-.1.3-.2.5-.3.2-.1.3-.2.5-.3 0 0 .1 0 .2-.1.1 0 .1-.1.2-.1s.1 0 .2-.1c0 0 .1 0 .2-.1 0 0 .1 0 0 .1v.2l-.4.3-.1.1-.1.1-.7.6-.4.4c-.2.1-.3.3-.5.4-.1 0-.1.1-.2.1s-.1.1-.2.1l-.1.1-.1.1c-.2.1-.3 0-.4 0l-.1-.1c-.1-.1-.1-.2-.2-.2V25l.1-.3c.1-.2.1-.3.2-.5 0-.2.1-.3.2-.5l.2-.4v-.2s0-.1-.1-.1h-.1l-.4.4-.2.2c-.1.1-.2.1-.3.1 0 0-.1 0-.1.1l-.1.1c0 .1-.1.1-.3.2l-.1.1c-.1 0-.2 0-.2-.1s-.1-.2 0-.3c0-.1.1-.2.1-.3 0-.1.1-.2.1-.3.1-.1.1-.2.2-.3 0-.1.1-.2.1-.3 0-.1.1-.2.1-.3 0-.1.1-.2.1-.3 0-.1.1-.2.1-.3 0-.1.1-.1.1-.2s.1-.1.1-.2.1-.1.2-.1H46.7s.1 0 .1.1c.1.1.2.2.1.3v.4h.2l.3-.3.3-.3c.1-.1.3-.1.4-.1.1 0 .2 0 .3.1V21.7c0 .1 0 .2-.1.2l-.6 1.4-.3.8c-.1.1-.1.3-.1.4-.2.1-.2.1 0 .1z"/><path class="st0" d="M50.8 21.3c0 .1 0 .2-.1.3 0 .1-.1.2-.1.3-.1.2-.1.3-.2.5s-.2.3-.2.5c0 .1-.1.3-.1.4 0 .1-.1.2-.1.4v.6c0 .2.1.4.2.5.1.1.3.1.5.1.4 0 .7-.1 1-.3.1 0 .2-.1.3-.1.1 0 .2-.1.3-.1h.2c-.1.2-.3.3-.4.5-.1.2-.2.3-.4.4-.4.2-.8.3-1.2.2-.3 0-.6-.2-.8-.5-.2-.3-.3-.6-.3-1 0-.2.1-.3.1-.5.1-.2.1-.4.2-.5.1-.3.3-.6.4-.9.1-.3.3-.6.4-.8.1-.1.2-.2.2-.3 0-.1.1-.2.2-.3.1-.1.1-.3 0-.4H48.1c-.2 0-.4-.1-.6-.1-.1 0-.1-.1-.2-.1s-.1-.1-.2-.1c.1-.1.2-.1.4-.1h3.9c.2-.2.3-.4.4-.7.1-.2.2-.3.3-.5.1-.1.2-.3.3-.4l.1-.1s0-.1.1-.1c.1-.1.2-.1.3-.1h.3c.1 0 .2 0 .3.1 0 .1.1.1.1.2-.2.2-.4.5-.6.7-.2.2-.4.5-.5.8.4 0 .8.1 1.1 0h5c-.6.2-1.2.3-1.9.3-.3 0-.7 0-1 .1-.3 0-.6 0-1 .1-.4 0-.7 0-1.1.1-.4 0-.7 0-1.1.1h-.2c-.1 0-.3 0-.4.1-.1.1-.2.2-.2.3-.1.1-.1.3-.2.4-.1.1-.2.2-.2.4 0 0 0 .1-.1.1-.4-.6-.4-.5-.4-.5z"/><g><path class="st0" d="M13.9 33.4c1.3 0 2.2 1 2.2 2.2v.5c0 1.3-1 2.2-2.2 2.2h-1.1V42l-1 .2v-8.9h2.1zm1.3 2.3c0-.7-.6-1.2-1.2-1.2h-1.1v3H14c.7 0 1.2-.5 1.2-1.2v-.6zM21.6 41.3v1.1h-4.2v-8.9h4.2v1.1h-3.1V37H21l-.2 1.1h-2.3v3.2h3.1zM24.8 38.4h-.6v3.7l-1 .2v-8.9h2.1c1.3 0 2.2 1 2.2 2.2v.5c0 1-.7 1.9-1.6 2.1l1.7 4h-1.2l-1.6-3.8zm.4-1c.7 0 1.2-.6 1.2-1.2v-.5c0-.7-.6-1.2-1.2-1.2h-1.1v3h1.1zM33.5 40.1c0 1.2-1 2.2-2.2 2.2-1.2 0-2.2-1-2.2-2.2v-.2h1.1v.2c0 .7.5 1.2 1.2 1.2.6 0 1.2-.5 1.2-1.2 0-2.3-3.4-1.7-3.4-4.6 0-1.2 1-2.2 2.2-2.2 1.2 0 2.2 1 2.2 2.2v.1l-1.1.2v-.3c0-.6-.5-1.2-1.2-1.2-.6 0-1.2.5-1.2 1.2 0 2.2 3.4 1.6 3.4 4.6zM39.5 35.7v4.5c0 1.2-1 2.2-2.2 2.2-1.2 0-2.2-1-2.2-2.2v-4.5c0-1.2 1-2.2 2.2-2.2 1.2-.1 2.2.9 2.2 2.2zm-1 0c0-.7-.6-1.2-1.2-1.2-.7 0-1.2.6-1.2 1.2v4.5c0 .7.6 1.2 1.2 1.2.7 0 1.2-.6 1.2-1.2v-4.5zM45.1 42.4H44l-2-5.8v5.6l-1 .2v-8.9h1l2 5.8v-5.8h1.1v8.9zM50.8 42.4l-.7-2.4h-2.2l-.6 2.1-1.1.2 2.2-9h1.2l2.2 8.9h-1zm-1.8-7l-.9 3.6h1.8l-.9-3.6zM57.2 42.4H53v-8.7l1.1-.2v7.8h3.1v1.1z"/></g><g><path class="st0" d="M21.1 57.4v.6c0 2.5-2.1 4.6-4.6 4.6s-4.6-2.1-4.6-4.6v-9.1c0-2.5 2.1-4.6 4.6-4.6s4.6 2.1 4.6 4.6v.2l-2.1.5v-.7c0-1.4-1.1-2.5-2.5-2.5S14 47.5 14 48.9V58c0 1.4 1.1 2.5 2.5 2.5S19 59.4 19 58v-.7h2.1zM32.1 62.6l-1.3-4.7h-4.5L25 62.2l-2.3.4 4.5-18.3h2.5l4.5 18.3h-2.1zm-3.6-14.3l-1.8 7.4h3.6l-1.8-7.4zM40.1 54.6h-1.3v7.6l-2.1.4V44.4H41c2.6 0 4.6 2 4.6 4.6v1c0 2.1-1.4 3.8-3.2 4.4l3.5 8.3h-2.4l-3.4-8.1zm.9-2.1c1.4 0 2.5-1.1 2.5-2.5v-1c0-1.4-1.1-2.5-2.5-2.5h-2.2v6H41zM57.2 60.4v2.2h-8.5V44.4h8.5v2.2h-6.3v5.1H56l-.4 2.2h-4.7v6.5h6.3z"/></g><g><path class="st0" d="M27.2 70.2v.6h-2.6V70c0-1.6 2-1.8 2-3.1 0-.4-.3-.7-.7-.7-.4 0-.7.3-.7.7v.1l-.6.1v-.2c0-.7.6-1.3 1.3-1.3.7 0 1.3.6 1.3 1.3 0 1.6-2 1.9-2 3.1v.2h2zM32.9 66.9v2.6c0 .7-.6 1.3-1.3 1.3-.7 0-1.3-.6-1.3-1.3v-2.6c0-.7.6-1.3 1.3-1.3.8.1 1.3.6 1.3 1.3zm-.6 0c0-.4-.3-.7-.7-.7-.4 0-.7.3-.7.7v2.6c0 .4.3.7.7.7.4 0 .7-.3.7-.7v-2.6zM38.7 70.2v.6h-2.6V70c0-1.6 2-1.8 2-3.1 0-.4-.3-.7-.7-.7-.4 0-.7.3-.7.7v.1l-.6.1v-.2c0-.7.6-1.3 1.3-1.3.7 0 1.3.6 1.3 1.3 0 1.6-2 1.9-2 3.1v.2h2zM44.5 66.9v2.6c0 .7-.6 1.3-1.3 1.3-.7 0-1.3-.6-1.3-1.3v-2.6c0-.7.6-1.3 1.3-1.3.7.1 1.3.6 1.3 1.3zm-.6 0c0-.4-.3-.7-.7-.7-.4 0-.7.3-.7.7v2.6c0 .4.3.7.7.7.4 0 .7-.3.7-.7v-2.6z"/></g><path class="st0" d="M60.1 0v2.7h8.7v8.6h2.7V0z"/><path class="st1" d="M.3 1.7h69.5v79.4H.3z"/></svg>